<svg version="1.1" id="Layer_1" xmlns="http://www.w3.org/2000/svg" xmlns:xlink="http://www.w3.org/1999/xlink" x="0px" y="0px"
	 width="100%" viewBox="0 0 225 225" enable-background="new 0 0 225 225" xml:space="preserve">
<path fill="#DA4453" opacity="1.000000" stroke="none" 
	d="
M101.000000,1.000000 
	C109.020897,1.000000 117.041801,1.000000 125.733795,1.341006 
	C173.971283,8.042150 210.785370,40.208927 222.507401,85.716293 
	C223.810471,90.775093 224.842346,95.903740 226.000000,101.000000 
	C226.000000,109.354233 226.000000,117.708466 225.656021,126.717316 
	C225.203125,127.855606 225.074265,128.335770 224.988144,128.823471 
	C216.419189,177.347015 188.519119,208.613495 141.234390,222.485062 
	C136.242172,223.949585 131.082169,224.842117 126.000000,226.000000 
	C117.645767,226.000000 109.291534,226.000000 100.282784,225.655884 
	C99.144379,225.202759 98.664505,225.069809 98.176048,224.988098 
	C49.039082,216.768280 14.087352,184.255127 3.436102,136.877869 
	C2.692409,133.569885 1.815149,130.291916 1.000001,127.000000 
	C1.000000,118.312439 1.000000,109.624870 1.344167,100.282684 
	C2.066063,97.675888 2.417776,95.718269 2.825335,93.772346 
	C12.453018,47.804249 39.742809,18.082033 84.820747,4.823529 
	C90.129440,3.262112 95.602913,2.260903 101.000000,1.000000 
M78.594513,60.014313 
	C76.293610,61.192684 73.669983,61.994381 71.760872,63.630043 
	C68.102036,66.764809 64.834595,70.358902 61.430832,73.788292 
	C55.212589,80.053360 55.209862,84.044289 61.469307,90.313431 
	C70.047661,98.905083 78.659187,107.463608 87.098160,115.878441 
	C86.904762,116.483803 86.901428,116.675903 86.803719,116.774254 
	C77.999023,125.636154 69.149872,134.454239 60.390354,143.360535 
	C55.555126,148.276779 55.579750,152.859253 60.339466,157.753098 
	C63.707863,161.216415 67.159630,164.598892 70.586388,168.005157 
	C76.738380,174.120377 81.093513,174.170013 87.144188,168.149017 
	C94.702721,160.627533 102.227898,153.072540 109.781403,145.545990 
	C110.902534,144.428879 112.100082,143.388458 113.498093,142.094254 
	C122.677734,151.354691 131.414932,160.283127 140.288010,169.074417 
	C145.131851,173.873596 149.809464,173.823181 154.675110,169.139404 
	C158.155655,165.788971 161.535919,162.333832 164.940277,158.904892 
	C170.998718,152.802734 171.034927,148.403015 164.998596,142.362244 
	C156.414978,133.772293 147.787918,125.225761 138.125824,115.612404 
	C139.936722,114.390343 141.671448,113.562683 142.967514,112.288734 
	C150.690659,104.697304 158.362839,97.052277 165.949844,89.324799 
	C170.676620,84.510498 170.700760,79.675507 166.101013,74.880630 
	C162.295685,70.913887 158.407089,67.020706 154.427933,63.228680 
	C149.702393,58.725372 145.142441,58.769661 140.404770,63.380058 
	C134.912552,68.724739 129.532074,74.184822 124.133797,79.625267 
	C120.554512,83.232529 117.029129,86.893288 113.340813,90.672310 
	C104.155540,81.494347 95.659042,72.803978 86.892548,64.395096 
	C84.861732,62.447124 81.909058,61.460220 78.594513,60.014313 
z"/>
<path fill="#FFFEFE" opacity="1.000000" stroke="none" 
	d="
M226.000000,100.531342 
	C224.842346,95.903740 223.810471,90.775093 222.507401,85.716293 
	C210.785370,40.208927 173.971283,8.042150 126.202446,1.341006 
	C159.260269,1.000000 192.520523,1.000000 226.000000,1.000000 
	C226.000000,34.020573 226.000000,67.041626 226.000000,100.531342 
z"/>
<path fill="#FFFEFE" opacity="1.000000" stroke="none" 
	d="
M126.468658,226.000000 
	C131.082169,224.842117 136.242172,223.949585 141.234390,222.485062 
	C188.519119,208.613495 216.419189,177.347015 224.988144,128.823471 
	C225.074265,128.335770 225.203125,127.855606 225.656021,127.185966 
	C226.000000,159.927292 226.000000,192.854599 226.000000,226.000000 
	C192.979431,226.000000 159.958374,226.000000 126.468658,226.000000 
z"/>
<path fill="#FFFEFE" opacity="1.000000" stroke="none" 
	d="
M100.531342,1.000000 
	C95.602913,2.260903 90.129440,3.262112 84.820747,4.823529 
	C39.742809,18.082033 12.453018,47.804249 2.825335,93.772346 
	C2.417776,95.718269 2.066063,97.675888 1.344167,99.814026 
	C1.000000,67.072693 1.000000,34.145393 1.000000,1.000000 
	C34.020573,1.000000 67.041626,1.000000 100.531342,1.000000 
z"/>
<path fill="#FFFEFE" opacity="1.000000" stroke="none" 
	d="
M1.000001,127.468658 
	C1.815149,130.291916 2.692409,133.569885 3.436102,136.877869 
	C14.087352,184.255127 49.039082,216.768280 98.176048,224.988098 
	C98.664505,225.069809 99.144379,225.202759 99.814133,225.655884 
	C67.073067,226.000000 34.146137,226.000000 1.000000,226.000000 
	C1.000000,193.312759 1.000000,160.625046 1.000001,127.468658 
z"/>
<path fill="#FFFEFE" opacity="1.000000" stroke="none" 
	d="
M78.987549,60.022697 
	C81.909058,61.460220 84.861732,62.447124 86.892548,64.395096 
	C95.659042,72.803978 104.155540,81.494347 113.340813,90.672310 
	C117.029129,86.893288 120.554512,83.232529 124.133797,79.625267 
	C129.532074,74.184822 134.912552,68.724739 140.404770,63.380058 
	C145.142441,58.769661 149.702393,58.725372 154.427933,63.228680 
	C158.407089,67.020706 162.295685,70.913887 166.101013,74.880630 
	C170.700760,79.675507 170.676620,84.510498 165.949844,89.324799 
	C158.362839,97.052277 150.690659,104.697304 142.967514,112.288734 
	C141.671448,113.562683 139.936722,114.390343 138.125824,115.612404 
	C147.787918,125.225761 156.414978,133.772293 164.998596,142.362244 
	C171.034927,148.403015 170.998718,152.802734 164.940277,158.904892 
	C161.535919,162.333832 158.155655,165.788971 154.675110,169.139404 
	C149.809464,173.823181 145.131851,173.873596 140.288010,169.074417 
	C131.414932,160.283127 122.677734,151.354691 113.498093,142.094254 
	C112.100082,143.388458 110.902534,144.428879 109.781403,145.545990 
	C102.227898,153.072540 94.702721,160.627533 87.144188,168.149017 
	C81.093513,174.170013 76.738380,174.120377 70.586388,168.005157 
	C67.159630,164.598892 63.707863,161.216415 60.339466,157.753098 
	C55.579750,152.859253 55.555126,148.276779 60.390354,143.360535 
	C69.149872,134.454239 77.999023,125.636154 86.803719,116.774254 
	C86.901428,116.675903 86.904762,116.483803 87.098160,115.878441 
	C78.659187,107.463608 70.047661,98.905083 61.469307,90.313431 
	C55.209862,84.044289 55.212589,80.053360 61.430832,73.788292 
	C64.834595,70.358902 68.102036,66.764809 71.760872,63.630043 
	C73.669983,61.994381 76.293610,61.192684 78.987549,60.022697 
z"/>
</svg>