<svg version="1.1" id="Layer_1" xmlns="http://www.w3.org/2000/svg" xmlns:xlink="http://www.w3.org/1999/xlink" x="0px" y="0px"
	 width="100%" viewBox="0 0 225 225" enable-background="new 0 0 225 225" xml:space="preserve">
<path fill="#FEFFFE" opacity="1.000000" stroke="none" 
	d="
M125.000000,1.000000 
	C158.593231,1.000000 192.186478,1.000000 226.000000,1.000000 
	C226.000000,34.020569 226.000000,67.041626 225.628906,100.374756 
	C223.704498,92.920059 222.151215,85.153297 220.357254,76.183105 
	C215.095749,82.858704 210.687408,88.265007 206.544632,93.867691 
	C205.728241,94.971779 205.717346,96.831322 205.706238,98.345184 
	C205.631912,108.458481 207.120880,118.827736 205.408066,128.643768 
	C196.173492,181.566132 148.139618,214.587875 95.430763,204.999359 
	C44.744186,195.778732 10.448543,143.190002 22.398972,93.012871 
	C35.198616,39.270077 88.861717,8.456165 141.605042,24.494635 
	C143.172791,24.971367 145.527740,25.310017 146.613998,24.501556 
	C151.719574,20.701641 156.509811,16.478025 162.521622,11.484462 
	C153.837891,8.728145 146.349747,6.186415 138.758316,4.004007 
	C134.256409,2.709791 129.591568,1.982308 125.000000,1.000000 
M152.764267,66.266197 
	C140.385406,82.450195 128.006546,98.634201 115.941452,114.407974 
	C109.049309,109.036491 101.565964,103.012627 93.838600,97.320023 
	C91.967422,95.941566 89.310509,95.051949 86.981293,94.976593 
	C78.502228,94.702255 70.008919,94.868263 61.293560,94.868263 
	C60.463020,97.538681 59.701546,99.987038 58.949635,102.404648 
	C72.418495,111.677696 84.295532,122.213730 93.335564,135.302658 
	C102.287483,148.264023 110.065628,162.036087 118.331429,175.408585 
	C144.546051,123.235138 178.152939,75.276375 218.863953,30.998474 
	C209.220490,30.998474 200.775452,30.725941 192.365448,31.149298 
	C189.500229,31.293531 186.016998,32.463516 184.023987,34.404804 
	C173.536285,44.620392 163.435135,55.232834 152.764267,66.266197 
z"/>
<path fill="#03A603" opacity="1.000000" stroke="none" 
	d="
M124.531349,1.000000 
	C129.591568,1.982308 134.256409,2.709791 138.758316,4.004007 
	C146.349747,6.186415 153.837891,8.728145 162.521622,11.484462 
	C156.509811,16.478025 151.719574,20.701641 146.613998,24.501556 
	C145.527740,25.310017 143.172791,24.971367 141.605042,24.494635 
	C88.861717,8.456165 35.198616,39.270077 22.398972,93.012871 
	C10.448543,143.190002 44.744186,195.778732 95.430763,204.999359 
	C148.139618,214.587875 196.173492,181.566132 205.408066,128.643768 
	C207.120880,118.827736 205.631912,108.458481 205.706238,98.345184 
	C205.717346,96.831322 205.728241,94.971779 206.544632,93.867691 
	C210.687408,88.265007 215.095749,82.858704 220.357254,76.183105 
	C222.151215,85.153297 223.704498,92.920059 225.628906,100.843414 
	C226.000000,109.354233 226.000000,117.708466 225.633606,126.680344 
	C224.909454,129.087646 224.559448,130.878876 224.192810,132.666718 
	C214.666382,179.119720 187.002197,208.895721 141.615768,222.256073 
	C136.180771,223.855957 130.543503,224.768738 125.000000,226.000000 
	C116.979103,226.000000 108.958199,226.000000 100.319588,225.633606 
	C97.912460,224.909317 96.121132,224.560654 94.333908,224.192139 
	C48.358318,214.711899 18.565199,187.476974 4.946402,142.583527 
	C3.392544,137.461334 2.304193,132.197922 0.999999,127.000000 
	C1.000000,118.312439 1.000000,109.624870 1.366326,100.319679 
	C2.093700,97.913086 2.503895,96.132439 2.808608,94.333931 
	C10.427425,49.365498 44.436226,13.754352 89.249542,3.785172 
	C92.860840,2.981802 96.417793,1.934141 100.000000,1.000000 
	C108.020897,1.000000 116.041801,1.000000 124.531349,1.000000 
z"/>
<path fill="#FDFEFD" opacity="1.000000" stroke="none" 
	d="
M125.468658,226.000000 
	C130.543503,224.768738 136.180771,223.855957 141.615768,222.256073 
	C187.002197,208.895721 214.666382,179.119720 224.192810,132.666718 
	C224.559448,130.878876 224.909454,129.087646 225.633606,127.149002 
	C226.000000,159.927658 226.000000,192.855331 226.000000,226.000000 
	C192.646088,226.000000 159.291702,226.000000 125.468658,226.000000 
z"/>
<path fill="#FDFEFD" opacity="1.000000" stroke="none" 
	d="
M99.531342,1.000000 
	C96.417793,1.934141 92.860840,2.981802 89.249542,3.785172 
	C44.436226,13.754352 10.427425,49.365498 2.808608,94.333931 
	C2.503895,96.132439 2.093700,97.913086 1.366326,99.851028 
	C1.000000,67.073067 1.000000,34.146133 1.000000,1.000000 
	C33.687233,1.000000 66.374962,1.000000 99.531342,1.000000 
z"/>
<path fill="#FDFEFD" opacity="1.000000" stroke="none" 
	d="
M0.999999,127.468658 
	C2.304193,132.197922 3.392544,137.461334 4.946402,142.583527 
	C18.565199,187.476974 48.358318,214.711899 94.333908,224.192139 
	C96.121132,224.560654 97.912460,224.909317 99.850937,225.633606 
	C67.073067,226.000000 34.146137,226.000000 1.000000,226.000000 
	C1.000000,193.312759 1.000000,160.625046 0.999999,127.468658 
z"/>
<path fill="#03A603" opacity="1.000000" stroke="none" 
	d="
M152.982025,65.986855 
	C163.435135,55.232834 173.536285,44.620392 184.023987,34.404804 
	C186.016998,32.463516 189.500229,31.293531 192.365448,31.149298 
	C200.775452,30.725941 209.220490,30.998474 218.863953,30.998474 
	C178.152939,75.276375 144.546051,123.235138 118.331429,175.408585 
	C110.065628,162.036087 102.287483,148.264023 93.335564,135.302658 
	C84.295532,122.213730 72.418495,111.677696 58.949635,102.404648 
	C59.701546,99.987038 60.463020,97.538681 61.293560,94.868263 
	C70.008919,94.868263 78.502228,94.702255 86.981293,94.976593 
	C89.310509,95.051949 91.967422,95.941566 93.838600,97.320023 
	C101.565964,103.012627 109.049309,109.036491 115.941452,114.407974 
	C128.006546,98.634201 140.385406,82.450195 152.982025,65.986855 
z"/>
</svg>